<svg xmlns="http://www.w3.org/2000/svg" height="24" viewBox="0 96 960 960" width="24"><path d="M480 976q-75 0-140.5-28.5t-114-77q-48.5-48.5-77-114T120 616h80q0 117 81.5 198.5T480 896q117 0 198.5-81.5T760 616q0-117-81.5-198.5T480 336h-6l62 62-56 58-160-160 160-160 56 58-62 62h6q75 0 140.5 28.5t114 77q48.5 48.5 77 114T840 616q0 75-28.5 140.5t-77 114q-48.5 48.5-114 77T480 976ZM360 736V556h-60v-60h120v240h-60Zm140 0q-17 0-28.5-11.5T460 696V536q0-17 11.5-28.5T500 496h80q17 0 28.5 11.5T620 536v160q0 17-11.5 28.5T580 736h-80Zm20-60h40V556h-40v120Z"/></svg>